<svg xmlns="http://www.w3.org/2000/svg" viewBox="0 0 128 128" role="img" aria-labelledby="title description">
  <title id="title">Labeloo</title>
  <desc id="description">A teal address label with a gold registration dot</desc>
  <rect width="128" height="128" rx="24" fill="#16201f"/>
  <path d="M22 36c0-7.732 6.268-14 14-14h56c7.732 0 14 6.268 14 14v56c0 7.732-6.268 14-14 14H36c-7.732 0-14-6.268-14-14V36Z" fill="#fffef9"/>
  <path d="M22 52h84" stroke="#087f78" stroke-width="8"/>
  <circle cx="92" cy="36" r="8" fill="#d8a327"/>
  <path d="M39 69h50M39 83h38" stroke="#16201f" stroke-width="7" stroke-linecap="round"/>
  <path d="M22 36c0-7.732 6.268-14 14-14h56c7.732 0 14 6.268 14 14v56c0 7.732-6.268 14-14 14H36c-7.732 0-14-6.268-14-14V36Z" fill="none" stroke="#087f78" stroke-width="4"/>
</svg>
